<!DOCTYPE svg PUBLIC "-//W3C//DTD SVG 1.1//EN" "http://www.w3.org/Graphics/SVG/1.1/DTD/svg11.dtd">
<!-- Uploaded to: SVG Repo, www.svgrepo.com, Transformed by: SVG Repo Mixer Tools -->
<svg fill="#515151" width="800px" height="800px" viewBox="0 0 24 24" xmlns="http://www.w3.org/2000/svg" stroke="#515151">
<g id="SVGRepo_bgCarrier" stroke-width="0"/>
<g id="SVGRepo_tracerCarrier" stroke-linecap="round" stroke-linejoin="round"/>
<g id="SVGRepo_iconCarrier">
<path d="M5,22H19a2,2,0,0,0,2-2V11a2,2,0,0,0-2-2H17V7A5,5,0,0,0,7,7V9H5a2,2,0,0,0-2,2v9A2,2,0,0,0,5,22Zm7-4.5a2,2,0,1,1,2-2A2,2,0,0,1,12,17.5ZM9,9V7a3,3,0,0,1,6,0V9H9Z"/>
</g>
</svg>